<?xml version="1.0" standalone="no"?>
<!DOCTYPE svg PUBLIC "-//W3C//DTD SVG 20010904//EN"
 "http://www.w3.org/TR/2001/REC-SVG-20010904/DTD/svg10.dtd">
<svg version="1.0" xmlns="http://www.w3.org/2000/svg"
 width="1799.000000pt" height="513.000000pt" viewBox="0 0 1799.000000 513.000000"
 preserveAspectRatio="xMidYMid meet">

<g transform="translate(0.000000,513.000000) scale(0.100000,-0.100000)"
fill="#000000" stroke="none">
<path d="M2 3358 l3 -1763 1473 -3 1472 -2 0 410 0 410 -895 0 -895 0 0 280 0
280 725 0 725 0 0 410 0 410 -725 0 -725 0 0 255 0 255 860 0 860 0 0 410 0
410 -1440 0 -1440 0 2 -1762z"/>
<path d="M7827 1100 c-91 -23 -151 -72 -188 -155 -18 -40 -23 -69 -23 -140 -1
-149 26 -186 231 -323 149 -100 182 -144 161 -218 -18 -68 -97 -87 -149 -35
-26 26 -29 36 -29 90 l0 61 -115 0 -115 0 0 -82 c1 -140 38 -206 147 -260 62
-30 75 -33 163 -33 158 0 252 49 301 157 21 46 24 68 24 168 0 99 -3 121 -22
155 -30 57 -89 108 -230 198 -102 66 -124 84 -133 113 -31 92 55 161 126 101
21 -18 28 -35 32 -75 l5 -52 115 0 115 0 -6 63 c-3 34 -13 79 -22 100 -24 57
-89 122 -148 147 -58 26 -177 35 -240 20z"/>
<path d="M8553 1100 c-93 -20 -156 -70 -195 -155 -22 -48 -23 -61 -26 -362 -3
-262 -1 -322 13 -375 37 -146 123 -202 310 -203 155 0 267 49 321 141 26 44
29 58 32 171 l4 123 -124 0 -125 0 -6 -89 c-6 -91 -24 -144 -52 -155 -35 -13
-76 -6 -100 19 l-25 24 0 313 c0 265 2 317 15 335 17 24 71 39 103 29 30 -10
52 -66 52 -135 l0 -61 131 0 132 0 -6 93 c-9 120 -40 187 -110 234 -27 18 -65
37 -85 43 -50 15 -207 21 -259 10z"/>
<path d="M11223 1100 c-93 -20 -156 -70 -195 -155 -22 -48 -23 -61 -26 -362
-3 -262 -1 -322 13 -375 37 -146 123 -202 310 -203 155 0 267 49 321 141 26
44 29 58 32 171 l4 123 -124 0 -125 0 -6 -89 c-6 -91 -24 -144 -52 -155 -35
-13 -76 -6 -100 19 l-25 24 0 313 c0 265 2 317 15 335 17 24 71 39 103 29 30
-10 52 -66 52 -135 l0 -61 131 0 132 0 -6 93 c-9 120 -40 187 -110 234 -27 18
-65 37 -85 43 -50 15 -207 21 -259 10z"/>
<path d="M12687 1100 c-91 -23 -151 -72 -188 -155 -18 -40 -23 -69 -23 -140
-1 -149 26 -186 231 -323 149 -100 182 -144 161 -218 -18 -68 -97 -87 -149
-35 -26 26 -29 36 -29 90 l0 61 -115 0 -115 0 0 -82 c1 -140 38 -206 147 -260
62 -30 75 -33 163 -33 158 0 252 49 301 157 21 46 24 68 24 168 0 99 -3 121
-22 155 -30 57 -89 108 -230 198 -102 66 -124 84 -133 113 -31 92 55 161 126
101 21 -18 28 -35 32 -75 l5 -52 115 0 115 0 -6 63 c-3 34 -13 79 -22 100 -24
57 -89 122 -148 147 -58 26 -177 35 -240 20z"/>
<path d="M17523 1100 c-93 -20 -156 -70 -195 -155 -22 -48 -23 -61 -26 -362
-3 -262 -1 -322 13 -375 37 -146 123 -202 310 -203 155 0 267 49 321 141 26
44 29 58 32 171 l4 123 -124 0 -125 0 -6 -89 c-6 -91 -24 -144 -52 -155 -35
-13 -76 -6 -100 19 l-25 24 0 313 c0 265 2 317 15 335 17 24 71 39 103 29 30
-10 52 -66 52 -135 l0 -61 131 0 132 0 -6 93 c-9 120 -40 187 -110 234 -27 18
-65 37 -85 43 -50 15 -207 21 -259 10z"/>
<path d="M10 560 l0 -530 295 0 295 0 0 105 0 105 -170 0 -170 0 0 115 0 115
155 0 155 0 0 105 0 105 -155 0 -155 0 0 100 0 100 160 0 160 0 0 105 0 105
-285 0 -285 0 0 -530z"/>
<path d="M670 1078 c1 -7 52 -245 114 -528 l112 -515 145 -3 144 -3 115 528
115 528 -119 3 c-65 1 -120 1 -122 0 -1 -2 -31 -171 -66 -376 -36 -217 -66
-366 -70 -355 -4 10 -32 169 -63 353 -31 184 -59 345 -62 358 -5 21 -9 22
-124 22 -89 0 -119 -3 -119 -12z"/>
<path d="M1500 560 l0 -530 125 0 125 0 0 530 0 530 -125 0 -125 0 0 -530z"/>
<path d="M1880 560 l0 -532 233 4 c213 3 236 5 280 25 74 34 103 59 128 110
24 48 24 51 24 383 0 300 -2 340 -18 382 -23 58 -68 99 -144 129 -53 21 -78
23 -280 27 l-223 4 0 -532z m376 321 c21 -13 33 -30 38 -51 10 -52 7 -526 -4
-555 -12 -31 -63 -55 -120 -55 l-40 0 0 340 0 340 48 0 c28 0 59 -7 78 -19z"/>
<path d="M2680 560 l0 -530 295 0 295 0 0 105 0 105 -170 0 -170 0 0 115 0
115 155 0 155 0 0 105 0 105 -155 0 -155 0 0 100 0 100 160 0 160 0 0 105 0
105 -285 0 -285 0 0 -530z"/>
<path d="M3370 560 l0 -530 115 0 115 0 0 88 c0 48 -5 179 -10 292 -5 112 -7
206 -5 208 1 2 47 -130 101 -292 l99 -296 127 0 128 0 0 530 0 530 -121 0
-121 0 6 -57 c3 -32 8 -148 11 -258 3 -110 8 -218 11 -240 12 -84 -16 -13
-107 268 l-93 287 -128 0 -128 0 0 -530z"/>
<path d="M4130 985 l0 -105 95 0 95 0 0 -425 0 -425 125 0 125 0 0 425 0 425
100 0 100 0 0 105 0 105 -320 0 -320 0 0 -105z"/>
<path d="M5200 560 l0 -530 275 0 275 0 0 105 0 105 -150 0 -150 0 0 425 0
425 -125 0 -125 0 0 -530z"/>
<path d="M5850 560 l0 -530 125 0 125 0 0 530 0 530 -125 0 -125 0 0 -530z"/>
<path d="M6240 560 l0 -530 125 0 125 0 0 225 0 225 155 0 155 0 0 105 0 105
-155 0 -155 0 0 95 0 95 165 0 165 0 0 105 0 105 -290 0 -290 0 0 -530z"/>
<path d="M6940 560 l0 -530 295 0 295 0 0 105 0 105 -170 0 -170 0 0 115 0
115 155 0 155 0 0 105 0 105 -155 0 -155 0 0 100 0 100 160 0 160 0 0 105 0
105 -285 0 -285 0 0 -530z"/>
<path d="M9140 560 l0 -530 125 0 125 0 0 530 0 530 -125 0 -125 0 0 -530z"/>
<path d="M9530 560 l0 -530 295 0 295 0 0 105 0 105 -170 0 -170 0 0 115 0
115 155 0 155 0 0 105 0 105 -155 0 -155 0 0 100 0 100 160 0 160 0 0 105 0
105 -285 0 -285 0 0 -530z"/>
<path d="M10230 560 l0 -530 116 0 117 0 -7 238 c-4 130 -9 264 -11 297 -4 51
9 17 96 -237 l101 -298 129 0 129 0 0 530 0 530 -121 0 -121 0 6 -62 c3 -35 8
-153 11 -263 3 -110 8 -215 11 -233 6 -40 -11 -35 -21 5 -3 16 -45 146 -91
291 l-85 262 -130 0 -129 0 0 -530z"/>
<path d="M11810 560 l0 -530 295 0 295 0 0 105 0 105 -170 0 -170 0 0 115 0
115 155 0 155 0 0 105 0 105 -155 0 -155 0 0 100 0 100 160 0 160 0 0 105 0
105 -285 0 -285 0 0 -530z"/>
<path d="M13570 560 l0 -530 125 0 125 0 0 225 0 225 155 0 155 0 0 105 0 105
-155 0 -155 0 0 95 0 95 165 0 165 0 0 105 0 105 -290 0 -290 0 0 -530z"/>
<path d="M14230 985 l0 -105 145 0 c80 0 145 -2 145 -5 0 -2 -70 -151 -155
-331 l-155 -327 0 -93 0 -94 300 0 300 0 0 105 0 105 -160 0 c-88 0 -160 2
-160 5 0 2 68 147 150 321 l150 316 0 104 0 104 -280 0 -280 0 0 -105z"/>
<path d="M16050 560 l0 -530 275 0 275 0 0 105 0 105 -150 0 -150 0 0 425 0
425 -125 0 -125 0 0 -530z"/>
<path d="M16680 560 l0 -530 275 0 275 0 0 105 0 105 -150 0 -150 0 0 425 0
425 -125 0 -125 0 0 -530z"/>
<path d="M15240 465 l0 -105 175 0 175 0 0 105 0 105 -175 0 -175 0 0 -105z"/>
</g>
</svg>
